<svg width="384" height="307" viewBox="0 0 384 307" fill="none" xmlns="http://www.w3.org/2000/svg">
<rect x="0.5" y="0.5" width="169" height="270" rx="8.5" fill="white" stroke="#E4E4E7"/>
<path d="M20.465 32V22.85H17.18V21.5H25.235V22.85H21.95V32H20.465ZM28.8507 32.18C28.1007 32.18 27.4407 32.015 26.8707 31.685C26.3007 31.345 25.8507 30.88 25.5207 30.29C25.2007 29.7 25.0407 29.02 25.0407 28.25C25.0407 27.48 25.2007 26.8 25.5207 26.21C25.8407 25.62 26.2857 25.16 26.8557 24.83C27.4257 24.49 28.0807 24.32 28.8207 24.32C29.5607 24.32 30.2157 24.49 30.7857 24.83C31.3557 25.16 31.8007 25.62 32.1207 26.21C32.4407 26.8 32.6007 27.48 32.6007 28.25C32.6007 29.02 32.4407 29.7 32.1207 30.29C31.8007 30.88 31.3557 31.345 30.7857 31.685C30.2257 32.015 29.5807 32.18 28.8507 32.18ZM28.8507 30.875C29.3007 30.875 29.7007 30.765 30.0507 30.545C30.4007 30.315 30.6707 30.005 30.8607 29.615C31.0607 29.225 31.1607 28.77 31.1607 28.25C31.1607 27.73 31.0607 27.275 30.8607 26.885C30.6707 26.495 30.3957 26.19 30.0357 25.97C29.6757 25.74 29.2707 25.625 28.8207 25.625C28.3607 25.625 27.9557 25.74 27.6057 25.97C27.2557 26.19 26.9807 26.495 26.7807 26.885C26.5807 27.275 26.4807 27.73 26.4807 28.25C26.4807 28.77 26.5807 29.225 26.7807 29.615C26.9807 30.005 27.2607 30.315 27.6207 30.545C27.9807 30.765 28.3907 30.875 28.8507 30.875ZM34.0269 28.16V26.915H38.5269V28.16H34.0269ZM40.7178 32V21.5H43.9578C44.9578 21.5 45.8428 21.725 46.6128 22.175C47.3928 22.615 48.0028 23.23 48.4428 24.02C48.8828 24.81 49.1028 25.72 49.1028 26.75C49.1028 27.77 48.8828 28.675 48.4428 29.465C48.0028 30.255 47.3928 30.875 46.6128 31.325C45.8428 31.775 44.9578 32 43.9578 32H40.7178ZM42.1878 30.62H43.9578C44.4678 30.62 44.9428 30.525 45.3828 30.335C45.8228 30.135 46.2078 29.86 46.5378 29.51C46.8778 29.15 47.1378 28.735 47.3178 28.265C47.5078 27.795 47.6028 27.29 47.6028 26.75C47.6028 26.21 47.5078 25.705 47.3178 25.235C47.1378 24.765 46.8778 24.355 46.5378 24.005C46.2078 23.645 45.8228 23.37 45.3828 23.18C44.9428 22.98 44.4678 22.88 43.9578 22.88H42.1878V30.62ZM54.1339 32.18C53.3839 32.18 52.7239 32.015 52.1539 31.685C51.5839 31.345 51.1339 30.88 50.8039 30.29C50.4839 29.7 50.3239 29.02 50.3239 28.25C50.3239 27.48 50.4839 26.8 50.8039 26.21C51.1239 25.62 51.5689 25.16 52.1389 24.83C52.7089 24.49 53.3639 24.32 54.1039 24.32C54.8439 24.32 55.4989 24.49 56.0689 24.83C56.6389 25.16 57.0839 25.62 57.4039 26.21C57.7239 26.8 57.8839 27.48 57.8839 28.25C57.8839 29.02 57.7239 29.7 57.4039 30.29C57.0839 30.88 56.6389 31.345 56.0689 31.685C55.5089 32.015 54.8639 32.18 54.1339 32.18ZM54.1339 30.875C54.5839 30.875 54.9839 30.765 55.3339 30.545C55.6839 30.315 55.9539 30.005 56.1439 29.615C56.3439 29.225 56.4439 28.77 56.4439 28.25C56.4439 27.73 56.3439 27.275 56.1439 26.885C55.9539 26.495 55.6789 26.19 55.3189 25.97C54.9589 25.74 54.5539 25.625 54.1039 25.625C53.6439 25.625 53.2389 25.74 52.8889 25.97C52.5389 26.19 52.2639 26.495 52.0639 26.885C51.8639 27.275 51.7639 27.73 51.7639 28.25C51.7639 28.77 51.8639 29.225 52.0639 29.615C52.2639 30.005 52.5439 30.315 52.9039 30.545C53.2639 30.765 53.6739 30.875 54.1339 30.875Z" fill="black"/>
<rect x="17.5" y="48.5" width="135" height="50" rx="4.5" fill="#FAFAFA" stroke="#E4E4E7" stroke-linecap="round" stroke-dasharray="10 10"/>
<rect x="214.5" y="36.5" width="169" height="270" rx="8.5" fill="white" stroke="#E4E4E7"/>
<path d="M232.335 68V57.5H235.575C236.575 57.5 237.46 57.725 238.23 58.175C239.01 58.615 239.62 59.23 240.06 60.02C240.5 60.81 240.72 61.72 240.72 62.75C240.72 63.77 240.5 64.675 240.06 65.465C239.62 66.255 239.01 66.875 238.23 67.325C237.46 67.775 236.575 68 235.575 68H232.335ZM233.805 66.62H235.575C236.085 66.62 236.56 66.525 237 66.335C237.44 66.135 237.825 65.86 238.155 65.51C238.495 65.15 238.755 64.735 238.935 64.265C239.125 63.795 239.22 63.29 239.22 62.75C239.22 62.21 239.125 61.705 238.935 61.235C238.755 60.765 238.495 60.355 238.155 60.005C237.825 59.645 237.44 59.37 237 59.18C236.56 58.98 236.085 58.88 235.575 58.88H233.805V66.62ZM245.751 68.18C245.001 68.18 244.341 68.015 243.771 67.685C243.201 67.345 242.751 66.88 242.421 66.29C242.101 65.7 241.941 65.02 241.941 64.25C241.941 63.48 242.101 62.8 242.421 62.21C242.741 61.62 243.186 61.16 243.756 60.83C244.326 60.49 244.981 60.32 245.721 60.32C246.461 60.32 247.116 60.49 247.686 60.83C248.256 61.16 248.701 61.62 249.021 62.21C249.341 62.8 249.501 63.48 249.501 64.25C249.501 65.02 249.341 65.7 249.021 66.29C248.701 66.88 248.256 67.345 247.686 67.685C247.126 68.015 246.481 68.18 245.751 68.18ZM245.751 66.875C246.201 66.875 246.601 66.765 246.951 66.545C247.301 66.315 247.571 66.005 247.761 65.615C247.961 65.225 248.061 64.77 248.061 64.25C248.061 63.73 247.961 63.275 247.761 62.885C247.571 62.495 247.296 62.19 246.936 61.97C246.576 61.74 246.171 61.625 245.721 61.625C245.261 61.625 244.856 61.74 244.506 61.97C244.156 62.19 243.881 62.495 243.681 62.885C243.481 63.275 243.381 63.73 243.381 64.25C243.381 64.77 243.481 65.225 243.681 65.615C243.881 66.005 244.161 66.315 244.521 66.545C244.881 66.765 245.291 66.875 245.751 66.875ZM251.062 68V60.5H252.397L252.457 61.595C252.707 61.185 253.027 60.87 253.417 60.65C253.817 60.43 254.272 60.32 254.782 60.32C255.372 60.32 255.882 60.44 256.312 60.68C256.752 60.92 257.087 61.295 257.317 61.805C257.557 62.305 257.677 62.965 257.677 63.785V68H256.252V64.16C256.252 63.48 256.172 62.965 256.012 62.615C255.862 62.255 255.647 62.005 255.367 61.865C255.097 61.725 254.782 61.65 254.422 61.64C253.812 61.64 253.337 61.855 252.997 62.285C252.657 62.715 252.487 63.32 252.487 64.1V68H251.062ZM262.785 68.18C262.055 68.18 261.41 68.015 260.85 67.685C260.29 67.345 259.85 66.88 259.53 66.29C259.21 65.7 259.05 65.02 259.05 64.25C259.05 63.48 259.21 62.8 259.53 62.21C259.85 61.62 260.29 61.16 260.85 60.83C261.42 60.49 262.07 60.32 262.8 60.32C263.49 60.32 264.095 60.495 264.615 60.845C265.135 61.185 265.54 61.675 265.83 62.315C266.13 62.945 266.28 63.69 266.28 64.55H260.505C260.555 65.29 260.8 65.87 261.24 66.29C261.69 66.7 262.24 66.905 262.89 66.905C263.39 66.905 263.805 66.79 264.135 66.56C264.475 66.32 264.74 66.02 264.93 65.66L266.16 66.23C265.96 66.62 265.7 66.965 265.38 67.265C265.06 67.555 264.68 67.78 264.24 67.94C263.81 68.1 263.325 68.18 262.785 68.18ZM260.595 63.425H264.75C264.72 63.025 264.61 62.69 264.42 62.42C264.24 62.14 264.005 61.925 263.715 61.775C263.435 61.625 263.12 61.55 262.77 61.55C262.43 61.55 262.1 61.625 261.78 61.775C261.46 61.915 261.19 62.125 260.97 62.405C260.76 62.685 260.635 63.025 260.595 63.425Z" fill="black"/>
<rect x="232.5" y="85.5" width="133" height="48" rx="3.5" fill="white"/>
<rect x="232.5" y="85.5" width="133" height="48" rx="3.5" stroke="#E4E4E7" stroke-width="3"/>
<rect x="232.5" y="85.5" width="133" height="48" rx="3.5" stroke="#00C663" stroke-width="3"/>
<rect x="232.5" y="153.5" width="133" height="48" rx="3.5" fill="white"/>
<rect x="232.5" y="153.5" width="133" height="48" rx="3.5" stroke="#E4E4E7" stroke-width="3"/>
<rect x="232.5" y="153.5" width="133" height="48" rx="3.5" stroke="#00C663" stroke-width="3"/>
<rect x="232.5" y="221.5" width="133" height="48" rx="3.5" fill="white"/>
<rect x="232.5" y="221.5" width="133" height="48" rx="3.5" stroke="#E4E4E7" stroke-width="3"/>
<rect x="232.5" y="221.5" width="133" height="48" rx="3.5" stroke="#00C663" stroke-width="3"/>
<rect x="17.5" y="116.5" width="135" height="50" rx="4.5" fill="white" stroke="#E4E4E7"/>
<g filter="url(#filter0_d_1_89)">
<rect x="38" y="73.9941" width="136" height="51" rx="5" transform="rotate(-3.79192 38 73.9941)" fill="white"/>
<rect x="38.532" y="74.4599" width="135" height="50" rx="4.5" transform="rotate(-3.79192 38.532 74.4599)" stroke="#E4E4E7"/>
</g>
<path d="M156.224 106.227C156.163 106.087 156.146 105.931 156.174 105.781C156.203 105.631 156.276 105.493 156.384 105.384C156.493 105.276 156.631 105.203 156.781 105.174C156.931 105.146 157.087 105.163 157.227 105.224L181.894 115.245C182.044 115.306 182.171 115.412 182.257 115.55C182.343 115.687 182.383 115.848 182.372 116.01C182.362 116.171 182.3 116.325 182.197 116.45C182.094 116.575 181.954 116.664 181.797 116.704L172.356 119.14C171.822 119.277 171.335 119.555 170.945 119.944C170.556 120.333 170.277 120.819 170.139 121.353L167.704 130.797C167.664 130.954 167.575 131.094 167.45 131.197C167.325 131.3 167.171 131.362 167.01 131.372C166.848 131.383 166.687 131.343 166.55 131.257C166.412 131.171 166.306 131.044 166.245 130.894L156.224 106.227Z" fill="black" stroke="black" stroke-width="1.66667" stroke-linecap="round" stroke-linejoin="round"/>
<rect x="17.5" y="184.5" width="135" height="50" rx="4.5" fill="white" stroke="#E4E4E7"/>
<defs>
<filter id="filter0_d_1_89" x="32.6195" y="59.6195" width="149.836" height="70.6434" filterUnits="userSpaceOnUse" color-interpolation-filters="sRGB">
<feFlood flood-opacity="0" result="BackgroundImageFix"/>
<feColorMatrix in="SourceAlpha" type="matrix" values="0 0 0 0 0 0 0 0 0 0 0 0 0 0 0 0 0 0 127 0" result="hardAlpha"/>
<feOffset/>
<feGaussianBlur stdDeviation="2.85"/>
<feComposite in2="hardAlpha" operator="out"/>
<feColorMatrix type="matrix" values="0 0 0 0 0 0 0 0 0 0 0 0 0 0 0 0 0 0 0.16 0"/>
<feBlend mode="normal" in2="BackgroundImageFix" result="effect1_dropShadow_1_89"/>
<feBlend mode="normal" in="SourceGraphic" in2="effect1_dropShadow_1_89" result="shape"/>
</filter>
</defs>
</svg>
